<?xml version="1.0" encoding="UTF-8"?>
<svg xmlns="http://www.w3.org/2000/svg" version="1.1" viewBox="0 0 800 800">
  <defs>
    <style>
      .cls-1 {
        fill: #f08182;
      }
    </style>
  </defs>
  <!-- Generator: Adobe Illustrator 28.7.1, SVG Export Plug-In . SVG Version: 1.2.0 Build 142)  -->
  <g>
    <g id="Calque_1">
      <path id="cross-svgrepo-com" class="cls-1" d="M62,676.8c-17.9,17.9-17.9,46.9,0,64.8,17.9,17.9,46.9,17.9,64.8,0h0l-64.8-64.8ZM432.4,436.2c17.9-17.9,17.9-47,0-64.9-17.9-17.9-47-17.9-64.9,0l64.9,64.9ZM367.5,371.3c-17.9,17.9-17.9,47,0,64.9s47,17.9,64.9,0l-64.9-64.9ZM737.9,130.6c17.9-17.9,17.9-46.9,0-64.8-17.9-17.9-46.9-17.9-64.8,0h0l64.8,64.8ZM432.4,371.3c-17.9-17.9-47-17.9-64.9,0-17.9,17.9-17.9,47,0,64.9l64.9-64.9ZM673.2,741.7c17.9,17.9,46.9,17.9,64.8,0,17.9-17.9,17.9-46.9,0-64.8l-64.8,64.8ZM367.5,436.2c17.9,17.9,47,17.9,64.9,0s17.9-47,0-64.9l-64.9,64.9ZM126.8,65.8c-18.2-17.5-47.2-17-64.8,1.3-17.1,17.7-17.1,45.8,0,63.5l64.8-64.8ZM126.8,741.7l305.6-305.5-64.9-64.9L62,676.8l64.8,64.9ZM432.4,436.2l305.5-305.5-64.9-64.9-305.5,305.5,64.9,64.9ZM367.6,436.2l305.5,305.5,64.8-64.8-305.5-305.6-64.8,64.9ZM432.4,371.3L126.9,65.8l-64.9,64.8,305.5,305.5,64.9-64.8Z"/>
    </g>
  </g>
</svg>