<?xml version="1.0" encoding="UTF-8"?>
<svg xmlns="http://www.w3.org/2000/svg" version="1.1" viewBox="0 0 80 80.1">
  <defs>
    <style>
      .cls-1 {
        fill: #fda41d;
      }
    </style>
  </defs>
  <!-- Generator: Adobe Illustrator 28.7.1, SVG Export Plug-In . SVG Version: 1.2.0 Build 142)  -->
  <g>
    <g id="Calque_1">
      <path id="Tracé_1558" class="cls-1" d="M46,29.5c2.1-4,4.2-7.9,6.2-11.9,1.5-2.9,2.6-6.1,4.1-9,.4-.8,1.9-1.9,2.6-1.8,2.3.4,4.4,1.2,6.4,2.3.5.3.5,2.3,0,3.3-3.4,8-8,15.5-13.5,22.2-.6.9-1,1.9-1.3,3,1.1.3,2.2.5,3.3.4,6.8-1.4,13.5-3,20.3-4.6,2.4-.6,3.6,0,4.4,2.4,1.9,6.1,1.5,7.3-4.8,8.1-6.9.9-14,1.4-20.9,2-.7,0-1.4,0-2.2.2,0,2.6,2,3.6,3.6,4.7,4.8,3,9.6,6.1,14.5,9,1.4.6,2.1,2.2,1.5,3.6,0,.1-.1.3-.2.4-.4,1-.8,2-1.3,2.9-1.7,3.5-2.1,3.7-5.1,1.4-5.6-4.1-11-8.4-16.5-12.6-.8-.6-1.7-1.1-2.6-1.6l-.9.5c.6,2.1,1,4.3,1.8,6.4,1.7,4.6,3.7,9,5.4,13.6.2.6,0,1.3-.4,1.8-1.9,1.3-3.9,2.3-6.1,3.2-.6.2-2.1-.6-2.5-1.3-1.1-1.9-2-3.9-2.6-6.1-1.3-5.3-2.3-10.6-3.5-15.9-.5-1.8-1.1-3.5-1.7-5.2h-1.1c-1.9,3.7-3.9,7.4-5.7,11.1-1.4,3-2.6,6-3.9,9.1,0,.2-.1.3-.2.5-.9,1.4-4.3,1.2-7.5-.2-1.4-.4-2.2-1.8-1.8-3.2,0-.2.2-.4.3-.6,3.1-7.4,7.1-14.3,12.1-20.6,1-1.3,2-2.7,3.4-4.4-.9-.4-1.9-.7-2.9-.7-5.1.8-10.1,1.7-15.2,2.7-2.3.4-4.4,1.3-6.7,1.7-3.4.5-3-2.8-3.8-4.5-.6-1.3-.6-4,.1-4.5,1.9-1,3.9-1.6,6.1-1.7,6.2-.6,12.4-1,18.6-1.6,1-.2,2-.4,2.9-.7-.5-.9-.8-2.2-1.6-2.8-5.1-3.4-10.2-6.7-15.4-9.9-2.7-1.6-3.1-2.4-1.5-5,.4-.8.8-1.6,1.1-2.4,1-2.6,2.6-3.4,4.9-1.7,5.6,4.2,11,8.7,16.5,13,.7.6,1.5,1,2.7,1.8,0-.8,0-1.5,0-2.3-2-5.8-4-11.5-6.1-17.3-.6-1.6-.6-2.9,1.2-3.7.8-.4,1.5-.9,2.3-1.3,4-2,5.4-1.4,6.5,2.9,1.8,7.3,3.4,14.7,5.1,22,.2,1,.6,1.9.9,2.9h.7"/>
    </g>
  </g>
</svg>