<?xml version="1.0" encoding="UTF-8"?>
<svg xmlns="http://www.w3.org/2000/svg" version="1.1" viewBox="0 0 80 80.1">
  <defs>
    <style>
      .cls-1 {
        fill: #fda41d;
      }
    </style>
  </defs>
  <!-- Generator: Adobe Illustrator 28.7.1, SVG Export Plug-In . SVG Version: 1.2.0 Build 142)  -->
  <g>
    <g id="Calque_1">
      <path id="Tracé_1660" class="cls-1" d="M62.5,72c-1.4-.9-2.8-1.7-4.1-2.7-2.9-2.3-5.7-4.8-8.7-7-.9-.8-2.1-1.3-3.3-1.3-.7.1-1.3,1.8-1.6,2.9-1.4,5.3-2.8,10.7-4.1,16.1h-1.1c-1.3-4.7-2.7-9.6-4-14.4-.2-.9-.2-1.9-.5-2.7-.8-2.7-2.1-3-4.2-1.3-4.3,3.5-8.7,6.9-13.6,10.8-.1-1.1-.1-2.2,0-3.2,1.8-4.6,3.7-9.1,5.5-13.7,1.1-2.9.7-3.5-2.5-3.3-4.2.2-8.3.7-12.5,1-1.9.1-3.7,0-5.6,0,0-.3-.2-.5-.2-.8,1.1-.7,2.2-1.5,3.3-2.2,4-2.5,8.1-5,12.1-7.6,2.4-1.5,2.2-2.7-.3-4.2-5-3.1-9.9-6.4-14.9-9.6,0-.3.2-.6.3-1,1.9,0,3.7.1,5.6.3,3.9.3,7.8.7,11.7.9,3.3.1,3.9-.8,2.8-3.8-1.7-4.4-3.6-8.7-5.4-13.1-.2-1-.4-1.9-.4-2.9l.9-.4c3.5,2.8,6.9,5.7,10.4,8.5.8.6,1.5,1.4,2.3,2,2.9,2.3,4.1,1.7,4.9-2,.9-4.2,1.8-8.3,2.9-12.5.5-1.6,1.2-3.1,2-4.6.4.8.8,1.7,1.1,2.6,1.3,5.1,2.5,10.3,3.8,15.4.6,2.3,2,2.9,3.9,1.4,3.5-2.7,6.9-5.6,10.4-8.4,1-.8,2-1.6,3.4-2.7.8,3.5-1.1,6-1.9,8.5-1,3.2-2.6,6.1-3.9,9.2-.8,2.1.5,2.7,2.3,2.6,4.1-.2,8.2-.5,12.3-.7,1.8,0,3.7,0,5.5,0,.1.3.3.5.4.8-2,1.3-3.9,2.7-5.9,4-2.9,1.9-5.9,3.6-8.7,5.5-2.3,1.6-2.3,2.7.1,4.3,5.1,3.2,10.2,6.4,16.1,10-1.2.4-2.4.6-3.7.7-4.5-.4-9-1.1-13.6-1.5-5.9-.6-6-.5-4.1,5,1.4,4,3.1,8,4.6,12,.3.9.5,1.8.6,2.7l-.6.4"/>
    </g>
  </g>
</svg>