<?xml version="1.0" encoding="UTF-8"?>
<svg id="Calque_1" data-name="Calque 1" xmlns="http://www.w3.org/2000/svg" version="1.1" viewBox="0 0 29.4 30">
  <defs>
    <style>
      .cls-1 {
        fill: #f08182;
        stroke-width: 0px;
      }
    </style>
  </defs>
  <g id="logout-1-svgrepo-com">
    <path id="Tracé_1562" data-name="Tracé 1562" class="cls-1" d="M7,15.1c0-.6.4-1.1,1-1.1h8.3V1.3c0-.7-.7-1.3-1.4-1.3C6.1,0,0,6.2,0,15s6.2,15,15,15,1.3-.6,1.3-1.3v-12.5h-8.2c-.6,0-1.1-.5-1.1-1.1h0Z"/>
    <path id="Tracé_1563" data-name="Tracé 1563" class="cls-1" d="M29.1,14.3l-4.3-4.2c-.4-.4-1.2-.4-1.6,0s-.4,1.2,0,1.6l2.3,2.3h-9.2v2.2h9.2l-2.3,2.3c-.4.4-.4,1.1,0,1.6.4.4,1.1.4,1.6,0h0l4.3-4.3c.4-.4.5-1.1,0-1.5h0Z"/>
  </g>
</svg>