<?xml version="1.0" encoding="UTF-8"?>
<svg xmlns="http://www.w3.org/2000/svg" version="1.1" viewBox="0 0 800 800">
  <defs>
    <style>
      .cls-1 {
        fill: #f08182;
      }
    </style>
  </defs>
  <!-- Generator: Adobe Illustrator 28.7.1, SVG Export Plug-In . SVG Version: 1.2.0 Build 142)  -->
  <g>
    <g id="Calque_1">
      <path id="fork-knife-fill-svgrepo-com" class="cls-1" d="M407.7,215.8v1.4c-.8,80.9-58.7,150-138.3,164.8v387.2c0,17-13.8,30.7-30.7,30.7s-30.7-13.8-30.7-30.7v-387.2c-79.6-14.8-137.6-83.9-138.4-164.8v-3.9c0-.6,0-1.1.2-1.7s0-.6,0-.9L100.5,26.4C103,9.6,118.6-2.1,135.4.4c16.8,2.4,28.5,18,26,34.8,0,.4-.1.9-.2,1.3l-24.8,148.6h71.3V31.4c0-17,13.8-30.7,30.7-30.7s30.7,13.8,30.7,30.7v153.7h71.3l-24.8-148.6c-3.2-16.7,7.8-32.8,24.5-35.9,16.7-3.2,32.8,7.8,35.9,24.5,0,.4.2.9.2,1.3l30.7,184.4v.9c0,.3,0,1.1.2,1.7s0,1.1,0,1.7.5.6.5.8ZM730.3,30.8v-3.2c0-.4,0-1.1-.3-1.6s-.2-1.1-.3-1.6-.2-.8-.3-1.2-.3-1.2-.6-1.8v-.5l-.2-.5c-.2-.6-.5-1.2-.8-1.8l-.5-1.1c-.3-.5-.5-1-.8-1.5l-.8-1.3-.8-1.1-1-1.3-.8-.9-1.2-1.3-.9-.9-1.3-1.1-1.3-1-1.2-.9-1.3-.9-1.1-.7-1.5-.8-1.1-.5-1.6-.7-1.1-.4-1.6-.5-1.3-.3-1.5-.3-1.6-.3h-1.4c0,0-1.9,0-1.9,0h-4.3l-1.6.3-1.6.3-1.2.3-1.8.6h-.5l-1.1.4-.4.2c-79.1,29.8-142.6,126.9-188.5,288.8-20.8,74.7-35.9,150.9-45.2,227.9-1.8,16.9,10.4,32,27.3,33.8,1.1.1,2.2.2,3.2.2h184.4v215.1c0,17,13.8,30.7,30.7,30.7s30.7-13.8,30.7-30.7V30.9h0Z"/>
    </g>
  </g>
</svg>