<?xml version="1.0" encoding="UTF-8"?>
<svg id="Calque_1" data-name="Calque 1" xmlns="http://www.w3.org/2000/svg" version="1.1" viewBox="0 0 30.5 20">
  <defs>
    <style>
      .cls-1 {
        fill: #f08182;
        stroke-width: 0px;
      }
    </style>
  </defs>
  <path class="cls-1" d="M30.2,10.7c0,0,.1-.2.2-.3,0,0,0,0,0-.1,0,0,0-.2,0-.2,0,0,0,0,0-.1,0,0,0-.2,0-.3,0,0,0,0,0,0,0-.1-.1-.2-.2-.3,0,0,0,0,0,0L21.2.3c-.4-.4-1-.4-1.4,0-.4.4-.4,1,0,1.4l7.3,7.3H1.1c-.6,0-1,.4-1,1s.4,1,1,1h26l-7.4,7.2c-.4.4-.4,1,0,1.4.2.2.5.3.7.3s.5,0,.7-.3l9.1-8.9s0,0,0,0c0,0,0,0,0,0,0,0,0,0,0,0Z"/>
</svg>