<?xml version="1.0" encoding="UTF-8"?>
<svg xmlns="http://www.w3.org/2000/svg" version="1.1" viewBox="0 0 800 800">
  <defs>
    <style>
      .cls-1 {
        fill: #f08182;
      }
    </style>
  </defs>
  <!-- Generator: Adobe Illustrator 28.7.1, SVG Export Plug-In . SVG Version: 1.2.0 Build 142)  -->
  <g>
    <g id="Calque_1">
      <path id="knife-fill-svgrepo-com" class="cls-1" d="M770.9,66.5c-39.1-38.9-102.2-38.8-141.1.3L11.1,700.6c-11,11.2-10.8,29.3.5,40.3,3.7,3.7,8.4,6.2,13.5,7.4,40.8,9.5,82.5,14.3,124.4,14.3,125.6-2,247.6-42,350-114.6,68.4-46,129.5-102.1,181.1-166.4,8.6-11.3,7.4-27.3-2.6-37.3l-66.7-66.7,160-170.4c38.6-39,38.4-101.8-.3-140.6ZM619.3,466.2c-45.1,51.6-96.7,97.2-153.4,135.7-108.7,79-243,114.7-376.6,100.1l378.2-387.6,82.9,82.9c.5.5,1,1.1,1.5,1.6l.3.3,67,67Z"/>
    </g>
  </g>
</svg>