<?xml version="1.0" encoding="UTF-8"?>
<svg id="Calque_1" data-name="Calque 1" xmlns="http://www.w3.org/2000/svg" version="1.1" viewBox="0 0 29.4 30">
  <defs>
    <style>
      .cls-1 {
        fill: #fdf9e8;
        stroke-width: 0px;
      }
    </style>
  </defs>
  <path id="Tracé_1657" data-name="Tracé 1657" class="cls-1" d="M14.4,29.5c-.3-1-.7-2.1-1-3.1-.6-2.7-2-5.1-4-7.1-1.6-1.4-3.5-2.4-5.6-3-1-.3-2.1-.5-3.2-.8-.2,0-.4-.4-.6-.6.2-.2.4-.5.7-.6,1-.3,2-.4,3-.8,2.5-.6,4.8-2,6.6-4,1.2-1.7,2.2-3.6,3-5.5.4-.9.6-1.9.9-2.8.1-.3.3-.6.5-.8.2.2.5.5.6.8.5,1.4,1,2.9,1.5,4.3,1.1,3.3,3.6,5.9,6.9,7.1,1.6.6,3.2,1,4.8,1.6.3.2.6.4.9.6-.3.3-.6.5-1,.7-2.8.6-5.5,1.7-7.9,3.3-2.1,1.7-3.6,4.1-4.3,6.7-.4,1-.6,2.1-1,3.1-.1.3-.3.6-.5.8h-.3Z"/>
</svg>