<?xml version="1.0" encoding="UTF-8"?>
<svg id="Calque_1" data-name="Calque 1" xmlns="http://www.w3.org/2000/svg" version="1.1" viewBox="0 0 151.1 40.8">
  <defs>
    <style>
      .cls-1 {
        fill: #f08282;
      }

      .cls-1, .cls-2, .cls-3 {
        stroke-width: 0px;
      }

      .cls-2 {
        fill: none;
      }

      .cls-3 {
        fill: #333;
      }
    </style>
  </defs>
  <g id="Groupe_405" data-name="Groupe 405">
    <path id="Tracé_264" data-name="Tracé 264" class="cls-1" d="M69.1.2l.4,1.2c.9,2.5,2.9,4.5,5.5,5.5l1.2.4c.2,0,.2.2.2.4,0,0,0,.2-.2.2l-1.2.4c-2.5.9-4.5,2.9-5.5,5.5l-.4,1.2c0,.2-.2.2-.4.2,0,0-.2,0-.2-.2l-.4-1.2c-.9-2.5-2.9-4.5-5.5-5.5l-1.2-.4c-.2,0-.2-.2-.2-.4,0,0,0-.2.2-.2l1.2-.4c2.5-.9,4.5-2.9,5.5-5.5l.4-1.2c0-.2.2-.2.4-.2,0,0,.2,0,.2.2"/>
    <path id="Tracé_265" data-name="Tracé 265" class="cls-3" d="M127.7,31.3c1,.2,1.9.5,2.8.6,1.1.2,2.2,0,3.2-.5.7-.3,1.3-.7,2-1,1.4-.8,3-1.2,4.7-1.2,0,0,.2,0,.2,0,0,0,0,0,0,0,0,0,0-.2,0-.4h-.4c-3.8,0-7.6,0-11.4,0-.2,0-.5-.1-.5-.4,0,0,0,0,0,0-2.2-6.7-4.4-13.4-6.6-20.1,0-.1,0-.2-.1-.4.1,0,.2,0,.3,0,3.3,0,6.6,0,10,0,.2,0,.3,0,.4.3.9,3.5,1.9,7.1,2.9,10.6.6,2.2.9,4.4.9,6.7,0,.1,0,.3,0,.4.2,0,.3,0,.3-.2.1-3.3.7-6.6,1.6-9.7.7-2.6,1.4-5.1,2.2-7.7,0-.2.1-.3.4-.3,3.4,0,6.7,0,10.1,0,0,0,.2,0,.3,0-.3.9-.6,1.8-.8,2.7-2.1,6.8-4.2,13.5-6.2,20.2-.6,2-1.5,4-2.7,5.7-1.2,1.9-3.1,3.2-5.3,3.8-1.6.3-3.2.4-4.7.2-1.1-.2-2.2-.4-3.4-.6-.2,0-.3-.1-.3-.3,0,0,0,0,0,0,0-2.8,0-5.5,0-8.3,0,0,0,0,0,0"/>
    <path id="Tracé_266" data-name="Tracé 266" class="cls-3" d="M96,20.2c0-1.6.3-3.3.7-4.8-.4-1-1-1.9-1.7-2.7-2-2.6-5-4.3-8.2-4.9-2.7-.5-5.5-.4-8.2.4-3.4.9-6.2,3.2-7.8,6.3-1.6,3-2,6.4-1.2,9.6.6,2.9,2.3,5.5,4.6,7.3,2.7,2,6.1,3.1,9.5,2.9.2,0,.4,0,.6,0,2.6,0,5.2-.8,7.4-2.1,2.3-1.4,4-3.4,5-5.8-.6-2-.9-4.1-.8-6.2M86.5,24.4c-.8.3-1.7.5-2.6.5-1.3,0-2.7-.2-3.8-.8-1.7-1.1-2.2-3.3-1.1-5,.3-.4.6-.8,1.1-1.1.8-.5,1.7-.8,2.6-.8,1.4-.2,2.8,0,4.1.5,1.8.8,2.7,2.9,1.9,4.8-.4.9-1.2,1.7-2.1,2"/>
    <path id="Tracé_267" data-name="Tracé 267" class="cls-3" d="M121.1,7.9c0-.1,0-.2-.1-.4.1,0,.2,0,.3,0h3.7V1.4h-9.7c0,0,0,.2,0,.2v9.5c0,.1,0,.2,0,.3.2,1.3.4,2.6.6,3.9.1.7.2,1.4.3,2.1h-.5c0-.2,0-.4,0-.6,0-1.4-.4-2.9-.8-4.2-.5-1.5-1.4-2.8-2.6-3.8-2.1-1.5-4.7-2-7.2-1.4-2.6.5-4.9,2.1-6.2,4.4-1.5,2.5-2.3,5.4-2.3,8.3-.1,2.7.4,5.4,1.5,7.9,1.4,3.2,3.7,5.4,7.3,5.9,1.4.2,2.8.2,4.1-.3,2-.7,3.6-2.1,4.5-4,.8-1.5,1.3-3.2,1.5-4.9,0,0,0,0,0-.1h.3c-.3,3-.6,5.9-.9,8.9h10.1v-13.7c-1.3-4-2.6-8.1-3.9-12.1M114.1,24.4c-.9.3-1.8.5-2.7.5-1.3,0-2.6-.2-3.8-.9-1.2-.8-1.8-2.2-1.6-3.6.2-1.4,1.1-2.5,2.4-2.9,1.8-.7,3.8-.7,5.6,0,1.5.5,2.5,1.9,2.5,3.4,0,1.5-1,2.9-2.4,3.4"/>
    <path id="Tracé_268" data-name="Tracé 268" class="cls-3" d="M68.3,18.6c-.3-2.2-1.2-4.3-2.6-6-2-2.6-5-4.3-8.2-4.9-2.7-.5-5.5-.4-8.2.4-3.1.9-5.8,2.9-7.5,5.6.2,1,.3,2.1.4,3.1,0,3.9,0,7.9,0,11.8.7,1,1.6,1.9,2.6,2.7,2.7,2,6.1,3.1,9.5,2.9.2,0,.4,0,.6,0,2.6,0,5.2-.8,7.4-2.1,2.4-1.4,4.3-3.7,5.2-6.3.9-2.3,1.1-4.8.7-7.2M57,24.3c-.8.3-1.7.5-2.6.5-1.3,0-2.7-.2-3.8-.8-1.7-1.1-2.2-3.3-1.1-5,.3-.4.6-.8,1.1-1.1.8-.5,1.7-.8,2.6-.8,1.4-.2,2.8,0,4.1.5,1.8.8,2.7,2.9,1.9,4.8-.4.9-1.2,1.7-2.1,2"/>
    <path id="Tracé_269" data-name="Tracé 269" class="cls-3" d="M41.7,33.7h-10.1v-.4c0-2.8,0-5.5,0-8.3,0-1.4,0-2.8-.2-4.1,0-.6-.3-1.2-.6-1.8-.5-1-1.7-1.5-2.8-1-.4.2-.7.5-.9.9-.5.9-.8,2-.9,3-.3,2.1-.4,4.3-.3,6.5,0,1.6,0,3.3,0,4.9s0,.2,0,.3h-10.1v-.4c0-3.1,0-6.2,0-9.3,0-1.1,0-2.1-.2-3.2,0-.5-.2-1-.4-1.5-.3-.8-1-1.3-1.8-1.4-.9-.1-1.7.3-2.2,1.1-.5.8-.7,1.7-.8,2.6-.3,2.6-.4,5.2-.3,7.9v4.2H0V7.9h10.2c-.6,4.9-1.2,9.7-1.8,14.6h.4c0-.6.1-1.2.2-1.8.3-2.8.9-5.6,1.9-8.3.5-1.4,1.3-2.6,2.3-3.6.9-.8,2-1.3,3.2-1.4,1.5-.3,3.1,0,4.5.6,1.4.8,2.5,2.1,3,3.6.5,1.4.7,2.8.8,4.3,0,2.1,0,4.2-.2,6.3v.2c.3.1.4,0,.4-.3.2-2.9.7-5.8,1.6-8.6.5-1.6,1.4-3.1,2.5-4.3,1.2-1.2,2.8-1.9,4.5-1.9,1.4-.1,2.9.2,4.2.8,1.3.8,2.3,2,2.8,3.5.6,1.7,1,3.4,1,5.2,0,5.5,0,11.1,0,16.6,0,0,0,0,0,.2"/>
    <rect id="Rectangle_31" data-name="Rectangle 31" class="cls-2" x="-4.1" y="-4.1" width="160.6" height="49.5"/>
  </g>
</svg>